<svg xmlns="http://www.w3.org/2000/svg" width="33" height="33"><path fill="#96A5B4" fill-rule="evenodd" d="M16.5 33C7.387 33 0 25.613 0 16.5S7.387 0 16.5 0 33 7.387 33 16.5 25.613 33 16.5 33zm0-29.906C9.096 3.094 3.094 9.096 3.094 16.5c0 7.404 6.002 13.406 13.406 13.406 7.404 0 13.406-6.002 13.406-13.406 0-7.404-6.002-13.406-13.406-13.406zm5.79 15.988l-4.64 5.156-.004-.004c-.284.315-.69.516-1.146.516-.457 0-.863-.201-1.146-.516l-.004.004-4.64-5.156.004-.004a1.534 1.534 0 01-.401-1.031c0-.854.692-1.547 1.546-1.547.457 0 .863.202 1.146.516l.004-.004 1.944 2.16V9.797a1.547 1.547 0 013.094 0v9.375l1.944-2.16.004.004a1.538 1.538 0 011.146-.516c.854 0 1.546.693 1.546 1.547 0 .398-.154.757-.401 1.031l.004.004z"/></svg>