<svg xmlns="http://www.w3.org/2000/svg" width="16" height="13"><path fill="#FFF" fill-rule="evenodd" d="M16 1.539a6.555 6.555 0 01-1.885.517A3.287 3.287 0 0015.557.241a6.616 6.616 0 01-2.085.796A3.283 3.283 0 007.877 4.03 9.323 9.323 0 011.11.599 3.273 3.273 0 00.666 2.25c0 1.139.758 2.143 1.639 2.732-.538-.017-1.308-.165-1.308-.411v.041c0 1.59.953 2.917 2.455 3.219a4.002 4.002 0 01-.955.115 3.81 3.81 0 01-.663-.06 3.258 3.258 0 003.044 2.28A6.623 6.623 0 010 11.525 9.292 9.292 0 005.031 13c6.039 0 9.34-5.002 9.34-9.339 0-.143-.004-.284-.01-.425a6.679 6.679 0 001.637-1.699l.002.002z"/></svg>