<svg xmlns="http://www.w3.org/2000/svg" width="68" height="68"><path fill="#28C8C6" fill-rule="evenodd" d="M58.036 58.036C51.425 64.648 43.335 68 33.992 68c-9.332 0-17.417-3.352-24.028-9.963C3.352 51.425 0 43.335 0 33.993 0 24.66 3.352 16.575 9.964 9.964 16.575 3.352 24.66 0 33.992 0c9.343 0 17.433 3.352 24.044 9.964C64.648 16.575 68 24.66 68 33.993c0 9.342-3.352 17.432-9.964 24.043zm-2.553-45.519h-.001c-5.992-5.992-13.021-8.905-21.49-8.905-8.457 0-15.482 2.913-21.475 8.905-5.992 5.993-8.906 13.018-8.906 21.476 0 8.467 2.914 15.497 8.906 21.49 5.993 5.992 13.018 8.906 21.475 8.906 8.468 0 15.498-2.914 21.491-8.906 5.992-5.993 8.906-13.023 8.906-21.49 0-8.458-2.914-15.483-8.906-21.476zm-23.371-.81c.611-.602 1.218-.853 1.82-.752.612-.111 1.224.14 1.836.752l17.591 40.704-31.044-18.042 9.797-22.662zM14.521 52.411l7.463-17.23 11.106 6.456-18.569 10.774z"/></svg>