<svg viewBox="161.816 182.771 137.463 137.951" xmlns="http://www.w3.org/2000/svg"><path fill="#8500D2" fill-rule="evenodd" d="M230.501 183.343c37.831 0 68.5 30.669 68.5 68.5s-30.669 68.5-68.5 68.5-68.5-30.669-68.5-68.5 30.669-68.5 68.5-68.5z"/><path fill="#FFF" fill-rule="evenodd" d="M251.498 240.048l-7.875 7.557v-5.25h-10.5v5.25l-5.25 5.25v-10.5c0-2.9 2.35-5.25 5.25-5.25h10.5v-5.25l7.875 8.193zm-23.625 18.057l5.25-5.25v10.5c0 2.9-2.35 5.25-5.25 5.25h-10.5v5.25l-7.875-8.193 7.875-7.557v5.25h10.5v-5.25z"/></svg>