<svg viewBox="188.591 156.578 137.369 137.368" xmlns="http://www.w3.org/2000/svg"><path fill="#8500D2" fill-rule="evenodd" d="M257.276 156.762c37.831 0 68.5 30.669 68.5 68.5s-30.669 68.5-68.5 68.5-68.5-30.669-68.5-68.5 30.669-68.5 68.5-68.5z"/><path fill="#FFF" fill-rule="evenodd" d="M280.32 212.905l.004.002-7.032 15.686a2.345 2.345 0 01-1.981 1.382l-20.249 1.355 1.17 3.356h22.048c2.589 0 4.688 2.107 4.688 4.706s-2.099 4.706-4.688 4.706c-2.589 0-4.687-2.107-4.687-4.706h-21.875c0 2.599-2.099 4.706-4.688 4.706-2.589 0-4.688-2.107-4.688-4.706s2.099-4.706 4.688-4.706h4.236l-9.024-25.882h-5.368a2.348 2.348 0 01-2.344-2.353 2.349 2.349 0 012.344-2.353h7.031c1.023 0 1.883.662 2.203 1.579l.009-.003 1.365 3.914h34.704a2.349 2.349 0 012.134 3.317zm-35.198 1.389l4.333 12.428 20.14-1.348 4.966-11.08h-29.439z"/></svg>