<svg viewBox="161.816 182.771 137.463 137.951" xmlns="http://www.w3.org/2000/svg"><path fill="#8500D2" fill-rule="evenodd" d="M230.501 183.343c37.831 0 68.5 30.669 68.5 68.5s-30.669 68.5-68.5 68.5-68.5-30.669-68.5-68.5 30.669-68.5 68.5-68.5z"/><path fill="#FFF" fill-rule="evenodd" d="M254.933 276.855h-49.844a2.575 2.575 0 01-2.578-2.572v-42.857a2.574 2.574 0 012.578-2.571h49.844a2.574 2.574 0 012.578 2.571v42.857a2.575 2.575 0 01-2.578 2.572zm-47.266-45.429a2.575 2.575 0 00-2.578 2.572 2.574 2.574 0 002.578 2.571 2.574 2.574 0 002.578-2.571 2.575 2.575 0 00-2.578-2.572zm7.735 0a2.576 2.576 0 00-2.579 2.572 2.575 2.575 0 002.579 2.571 2.575 2.575 0 002.578-2.571 2.576 2.576 0 00-2.578-2.572zm7.734 0a2.575 2.575 0 00-2.578 2.572 2.574 2.574 0 002.578 2.571 2.574 2.574 0 002.578-2.571 2.575 2.575 0 00-2.578-2.572zm31.797 7.715h-49.844v35.142h49.844v-35.142z"/></svg>